HIERARCHY
ROOT Hips
{
	OFFSET 0.000000 0.000000 0.000000
	CHANNELS 6 Xposition Yposition Zposition Xrotation Yrotation Zrotation
	JOINT LeftUpLeg_virtual
	{
		OFFSET 0.000000 0.000000 0.000000
		CHANNELS 3 Xrotation Yrotation Zrotation
		JOINT LeftUpLeg
		{
			OFFSET 15.427100 -6.655098 0.678600
			CHANNELS 3 Xrotation Yrotation Zrotation
			JOINT LeftLeg
			{
				OFFSET 4.081073 -39.591068 13.024000
				CHANNELS 3 Xrotation Yrotation Zrotation
				JOINT LeftFoot
				{
					OFFSET -4.081074 -37.707932 -15.979700
					CHANNELS 3 Xrotation Yrotation Zrotation
					JOINT LeftToeBase
					{
						OFFSET 5.346399 -15.068900 20.645000
						CHANNELS 3 Xrotation Yrotation Zrotation
						JOINT LeftToe_End
						{
							OFFSET 2.754700 0.931300 11.300900
							CHANNELS 3 Xrotation Yrotation Zrotation
							End Site
							{
								OFFSET 0 0 0
							}
						}
					}
				}
			}
		}
	}
	JOINT RightUpLeg_virtual
	{
		OFFSET 0.000000 0.000000 0.000000
		CHANNELS 3 Xrotation Yrotation Zrotation
		JOINT RightUpLeg
		{
			OFFSET -15.569500 -6.655098 0.678600
			CHANNELS 3 Xrotation Yrotation Zrotation
			JOINT RightLeg
			{
				OFFSET -4.081825 -39.591045 13.023800
				CHANNELS 3 Xrotation Yrotation Zrotation
				JOINT RightFoot
				{
					OFFSET 4.081824 -37.707954 -15.979600
					CHANNELS 3 Xrotation Yrotation Zrotation
					JOINT RightToeBase
					{
						OFFSET -5.346400 -15.068900 20.645000
						CHANNELS 3 Xrotation Yrotation Zrotation
						JOINT RightToe_End
						{
							OFFSET -2.754700 0.931300 11.300900
							CHANNELS 3 Xrotation Yrotation Zrotation
							End Site
							{
								OFFSET 0 0 0
							}
						}
					}
				}
			}
		}
	}
	JOINT Spine_virtual
	{
		OFFSET 0.000000 0.000000 0.000000
		CHANNELS 3 Xrotation Yrotation Zrotation
		JOINT Spine
		{
			OFFSET -0.279200 12.230698 -2.892100
			CHANNELS 3 Xrotation Yrotation Zrotation
			JOINT Spine1
			{
				OFFSET -0.232667 10.192268 -1.242267
				CHANNELS 3 Xrotation Yrotation Zrotation
				JOINT Spine1_split
				{
					OFFSET -0.232667 10.192268 -1.242267
					CHANNELS 3 Xrotation Yrotation Zrotation
					JOINT Spine2
					{
						OFFSET -0.232667 10.192268 -1.242267
						CHANNELS 3 Xrotation Yrotation Zrotation
						JOINT Neck_virtual
						{
							OFFSET 0.000000 0.000000 0.000000
							CHANNELS 3 Xrotation Yrotation Zrotation
							JOINT Neck
							{
								OFFSET -0.418800 17.814194 8.416900
								CHANNELS 3 Xrotation Yrotation Zrotation
								JOINT Head
								{
									OFFSET 0.000000 7.031097 3.806800
									CHANNELS 3 Xrotation Yrotation Zrotation
									JOINT HeadTop_End
									{
										OFFSET 0.000000 24.646606 12.978600
										CHANNELS 3 Xrotation Yrotation Zrotation
										End Site
										{
											OFFSET 0 0 0
										}
									}
								}
							}
						}
						JOINT LeftShoulder_virtual
						{
							OFFSET 0.000000 0.000000 0.000000
							CHANNELS 3 Xrotation Yrotation Zrotation
							JOINT LeftShoulder
							{
								OFFSET 8.476499 7.247704 -3.868750
								CHANNELS 3 Xrotation Yrotation Zrotation
								JOINT LeftShoulder_split
								{
									OFFSET 8.476499 7.247704 -3.868750
									CHANNELS 3 Xrotation Yrotation Zrotation
									JOINT LeftArm
									{
										OFFSET 9.308998 -2.777710 0.208600
										CHANNELS 3 Xrotation Yrotation Zrotation
										JOINT LeftForeArm
										{
											OFFSET 29.972298 0.000000 0.000000
											CHANNELS 3 Xrotation Yrotation Zrotation
											JOINT LeftHand
											{
												OFFSET 26.026505 0.000000 0.000000
												CHANNELS 3 Xrotation Yrotation Zrotation
												End Site
												{
													OFFSET 0 0 0
												}
											}
										}
									}
								}
							}
						}
						JOINT RightShoulder_virtual
						{
							OFFSET 0.000000 0.000000 0.000000
							CHANNELS 3 Xrotation Yrotation Zrotation
							JOINT RightShoulder
							{
								OFFSET -7.570500 7.247704 -3.868750
								CHANNELS 3 Xrotation Yrotation Zrotation
								JOINT RightShoulder_split
								{
									OFFSET -7.570500 7.247704 -3.868750
									CHANNELS 3 Xrotation Yrotation Zrotation
									JOINT RightArm
									{
										OFFSET -9.308998 -2.777710 0.208500
										CHANNELS 3 Xrotation Yrotation Zrotation
										JOINT RightForeArm
										{
											OFFSET -29.972300 0.000000 0.000000
											CHANNELS 3 Xrotation Yrotation Zrotation
											JOINT RightHand
											{
												OFFSET -26.026505 0.000000 0.000000
												CHANNELS 3 Xrotation Yrotation Zrotation
												End Site
												{
													OFFSET 0 0 0
												}
											}
										}
									}
								}
							}
						}
					}
				}
			}
		}
	}
}
MOTION
Frames: 8
Frame Time: 0.03333333
2.760555 71.817955 -1.529507 0.000000 0.000000 0.000000 -4.802180 -52.478550 1.167898 -33.088124 4.726067 21.480248 53.983189 -6.198235 2.563395 -18.960638 -8.988782 -15.439038 -1.988197 -0.367835 -0.821661 0.000000 0.000000 0.000000 -6.020235 -48.253842 1.496276 -15.609159 -11.827682 -37.357084 57.551386 -2.799336 -6.781223 -36.674510 -14.803728 27.740668 2.843088 1.684472 1.449671 0.000000 0.000000 0.000000 -4.926989 -50.366324 1.789332 9.922907 6.299641 -1.754305 2.098078 1.195601 -1.024852 0.117240 -0.833137 0.613714 0.000000 0.000000 0.000000 2.612168 1.127665 -0.815953 -1.338731 13.122932 3.557951 8.583121 20.576010 -3.845732 0.000000 0.000000 0.000000 3.439433 0.996571 -1.012153 1.491446 2.505859 -11.584822 -2.325227 0.115891 0.428113 -51.892752 2.141416 -50.980593 -178.303755 -75.147299 -178.195933 0.000000 0.000000 0.000000 3.692163 1.186386 -0.865665 3.396010 11.518051 -6.090479 -2.470628 1.845880 0.631545 -50.452258 26.655332 88.542577 -174.493698 71.425283 172.024434 0.000000 0.000000 0.000000 
2.387268 72.185165 -1.164547 0.000000 0.000000 0.000000 -4.609875 -52.390204 1.298279 -33.139825 5.281972 21.607706 53.159301 -6.425567 2.559597 -18.922600 -9.419177 -15.622799 -2.129163 -0.346497 -0.516719 0.000000 0.000000 0.000000 -5.531253 -48.471032 1.770283 -15.774781 -12.360636 -37.593672 56.963347 -2.558964 -6.356269 -35.650582 -13.625495 25.900077 2.627186 1.782866 2.073866 0.000000 0.000000 0.000000 -3.947029 -49.858195 2.398762 9.807738 6.413814 -1.811318 2.235845 1.268157 -1.093439 0.364904 -0.525508 0.593545 0.000000 0.000000 0.000000 2.564108 1.210933 -0.942685 -1.317665 13.008496 3.354465 8.832358 20.540626 -3.774748 0.000000 0.000000 0.000000 3.629709 1.034726 -1.056716 1.428758 1.989263 -10.961568 -2.423071 0.132596 0.168057 -52.648594 2.822652 -50.737418 -178.750777 -75.919233 -178.435714 0.000000 0.000000 0.000000 3.886383 1.273334 -0.980388 3.499593 11.790842 -5.862306 -2.859776 2.623661 0.820598 -50.905858 27.166220 88.458613 -175.098443 71.725346 172.821258 0.000000 0.000000 0.000000 
1.742572 73.064827 -0.813961 0.000000 0.000000 0.000000 -3.903890 -51.946628 1.798687 -33.204674 5.823405 21.774542 51.642743 -6.581101 2.672491 -18.519185 -10.295066 -15.653062 -2.370110 -0.334606 -0.052633 0.000000 0.000000 0.000000 -4.708063 -48.526250 2.410460 -16.925994 -11.710903 -38.560052 56.905110 -1.440012 -5.742108 -31.593832 -11.113484 25.450723 -1.301964 1.679758 3.271943 0.000000 0.000000 0.000000 -2.636929 -48.706953 3.276585 9.641819 6.724060 -1.906906 2.299922 1.488164 -1.254884 0.466402 -0.309505 0.554466 0.000000 0.000000 0.000000 2.475913 1.406644 -1.138865 -1.017303 12.851236 2.878395 9.219755 20.025174 -3.442009 0.000000 0.000000 0.000000 3.627794 1.215064 -1.196542 1.368075 0.914227 -10.232425 -2.174989 -0.104472 -0.311654 -54.887404 3.595187 -49.364297 -179.252700 -75.745555 -178.702597 0.000000 0.000000 0.000000 3.986873 1.458560 -1.189196 3.623104 12.361982 -5.670032 -2.813601 2.563943 0.923878 -52.487261 26.977229 88.244029 -175.426169 72.446662 173.419241 0.000000 0.000000 0.000000 
0.910409 74.237778 -0.538441 0.000000 0.000000 0.000000 -2.858826 -51.104213 2.469872 -33.319941 6.181939 22.026443 49.672370 -6.618364 2.879196 -17.777835 -11.467114 -15.527137 -2.641983 -0.326196 0.397394 0.000000 0.000000 0.000000 -3.642342 -48.129331 3.215823 -18.377276 -10.115403 -39.715723 56.971728 0.229681 -5.172122 -26.743029 -8.022075 25.440759 -6.473036 1.319035 4.628638 0.000000 0.000000 0.000000 -1.295022 -47.125481 4.141997 9.411219 7.108917 -1.983679 2.257506 1.744507 -1.418396 0.330298 -0.311556 0.633588 0.000000 0.000000 0.000000 2.402285 1.634322 -1.292114 -0.542423 12.726222 2.267284 9.636975 19.153915 -2.888814 0.000000 0.000000 0.000000 3.444226 1.453600 -1.318871 1.351508 -0.552095 -9.470783 -1.772721 -0.613017 -0.941695 -58.234302 4.333208 -46.923253 -179.555524 -74.690755 -178.784887 0.000000 0.000000 0.000000 3.936919 1.658203 -1.378758 3.742958 13.117660 -5.639179 -2.603205 1.721438 0.918996 -55.275205 26.043858 88.008272 -175.480879 73.707426 173.727842 0.000000 0.000000 0.000000 
0.026635 75.469215 -0.346516 0.000000 0.000000 0.000000 -1.753372 -49.883597 3.072523 -33.598875 6.309415 22.391281 47.570994 -6.554684 3.193076 -16.817922 -12.766881 -15.317618 -2.823850 -0.314220 0.643821 0.000000 0.000000 0.000000 -2.692179 -47.262457 3.812574 -19.734913 -8.329405 -40.464605 57.117167 1.503203 -4.631900 -22.974998 -5.573320 24.476172 -8.935944 0.939992 5.632681 0.000000 0.000000 0.000000 -0.051234 -45.380549 4.776206 9.141583 7.465959 -1.962696 2.129337 1.931271 -1.484569 0.200883 -0.331417 0.757049 0.000000 0.000000 0.000000 2.346344 1.791113 -1.295987 -0.069498 12.602767 1.733023 9.946756 18.162477 -2.189335 0.000000 0.000000 0.000000 3.141935 1.650869 -1.321353 1.404070 -2.208000 -8.803660 -1.575018 -1.039155 -1.478151 -62.309698 4.777872 -43.765964 -179.779144 -73.121929 -178.867956 0.000000 0.000000 0.000000 3.727576 1.784423 -1.429316 3.848985 13.987937 -5.797449 -2.434436 0.689833 0.708378 -59.232534 24.453582 87.899603 -175.086148 75.553135 173.484237 0.000000 0.000000 0.000000 
-0.914217 76.471054 -0.122128 0.000000 0.000000 0.000000 -0.900862 -48.334380 3.387895 -34.003718 6.257875 22.876919 45.698528 -6.570709 3.613128 -15.707343 -14.016311 -15.351436 -2.844984 -0.290941 0.594270 0.000000 0.000000 0.000000 -2.202215 -46.024215 4.022649 -20.746814 -7.041905 -40.697750 57.361964 1.956356 -3.929911 -20.875951 -4.820200 22.487004 -7.313277 0.782094 5.958654 0.000000 0.000000 0.000000 0.844392 -43.702484 5.034864 8.859948 7.700595 -1.823070 1.954171 1.954588 -1.399299 0.340463 -0.294937 0.819943 0.000000 0.000000 0.000000 2.317295 1.799937 -1.121137 0.258733 12.493796 1.481016 10.092953 17.283982 -1.441638 0.000000 0.000000 0.000000 2.794515 1.741235 -1.169154 1.509541 -3.941855 -8.356786 -1.532357 -1.305260 -1.851178 -66.340200 4.721996 -40.458605 -179.970048 -71.626623 -179.014204 0.000000 0.000000 0.000000 3.430341 1.795454 -1.291554 3.946125 14.818328 -6.128204 -2.367171 -0.071981 0.195942 -63.936451 22.475880 88.145647 -174.045856 77.964151 172.473806 0.000000 0.000000 0.000000 
-2.006723 76.994766 0.116238 0.000000 0.000000 0.000000 -0.500969 -46.606492 3.352751 -34.430154 6.130602 23.533425 44.262638 -6.659172 4.050624 -14.686947 -15.023358 -15.809439 -2.729646 -0.252562 0.251500 0.000000 0.000000 0.000000 -2.204507 -44.534326 3.855559 -21.399211 -6.529842 -40.753608 57.531237 1.780803 -3.106093 -20.232202 -5.900598 20.694503 -4.044310 0.791703 5.406526 0.000000 0.000000 0.000000 1.324106 -42.214158 4.937690 8.610828 7.823952 -1.591237 1.798512 1.820093 -1.194435 0.598894 -0.150059 0.858903 0.000000 0.000000 0.000000 2.316557 1.667538 -0.809797 0.352467 12.427196 1.581151 10.086970 16.665549 -0.712948 0.000000 0.000000 0.000000 2.513044 1.694494 -0.910287 1.657720 -5.551669 -8.231499 -1.510645 -1.419465 -1.919595 -69.546707 4.149386 -37.651329 179.651392 -70.703632 -179.491170 0.000000 0.000000 0.000000 3.103269 1.684563 -1.028913 4.017716 15.452996 -6.569449 -2.467517 -0.460057 -0.392665 -68.637923 20.514113 88.700962 -171.858433 80.706055 170.254896 0.000000 0.000000 0.000000 
-3.241416 76.982605 0.117996 0.000000 0.000000 0.000000 -0.620842 -44.856509 3.068199 -34.755653 6.074970 24.359929 43.443780 -6.871028 4.483722 -13.965660 -15.640303 -16.872254 -2.699677 -0.190163 -0.221762 0.000000 0.000000 0.000000 -2.733437 -43.269320 3.401077 -21.478015 -6.590826 -40.795094 57.093411 1.213029 -2.523793 -20.508690 -8.386242 19.888683 -1.512712 0.833103 4.006193 0.000000 0.000000 0.000000 1.377999 -41.163884 4.640255 8.449848 7.843305 -1.304251 1.704511 1.592404 -0.972057 0.839539 -0.034274 0.915512 0.000000 0.000000 0.000000 2.339710 1.449131 -0.498119 0.216502 12.404973 1.989704 9.947507 16.428922 -0.048372 0.000000 0.000000 0.000000 2.324786 1.548185 -0.672194 1.798130 -6.931665 -8.539796 -1.669908 -1.367502 -1.752814 -71.346517 3.168428 -35.865655 179.064993 -70.722306 179.717235 0.000000 0.000000 0.000000 2.846651 1.504232 -0.758137 4.040627 15.721303 -7.027393 -2.564819 -0.498016 -0.872946 -72.404226 18.902622 89.457009 -167.532478 83.435528 165.893014 0.000000 0.000000 0.000000 
